<svg xmlns="http://www.w3.org/2000/svg" viewBox="0 0 766.3 417.86"><defs><style>.cls-1{fill:#1d2657;}</style></defs><g id="Layer_2" data-name="Layer 2"><g id="Layer_1-2" data-name="Layer 1"><g id="Layer_2-2" data-name="Layer 2"><g id="Layer_1-2-2" data-name="Layer 1-2"><path class="cls-1" d="M.48,199c.44,0,.87-.08,1.3-.08H96.13a4.49,4.49,0,0,1,3.27,1.86,281.08,281.08,0,0,0,29.11,39A367.77,367.77,0,0,0,167.84,278a332.68,332.68,0,0,0,59.91,39.51,299.21,299.21,0,0,0,51.42,21.09c8.77,2.63,17.5,5.61,26.45,7.36,14.45,2.84,29.05,4.89,43.62,7.1,19.38,2.93,38.93,2.43,58.43,2.09,8-.14,15.91-1.18,23.84-2,9.7-1,19.39-2.12,29.05-3.44,5.67-.78,11.28-2,16.91-3.1,6.17-1.17,12.34-2.29,18.47-3.61,5-1.08,10-2.32,15-3.65,6-1.63,12-3.37,18-5.17,7.14-2.15,14.25-4.41,21.39-6.6a3.89,3.89,0,0,1,1.18,0c.09.24.18.47.26.71-9.4,5.12-18.68,10.49-28.23,15.33a392.51,392.51,0,0,1-58.22,23.66c-8.24,2.63-16.61,4.89-25,7-9.16,2.34-18.32,4.83-27.62,6.38-12.25,2-24.62,3.4-37,4.74a213.08,213.08,0,0,1-23,1.6c-13.47,0-27-.16-40.41-1a325.24,325.24,0,0,1-32.62-4c-9.75-1.63-19.37-4-29-6.29A327.61,327.61,0,0,1,200.32,359a365.06,365.06,0,0,1-56-28.62q-20.7-13.09-40.45-27.68a328.4,328.4,0,0,1-29.06-24.26c-15-13.94-29.74-28.14-43.81-42.92-10.93-11.4-20.72-23.84-31-35.81Z"/><path class="cls-1" d="M280,397.62c1.74.1,3.49.1,5.21.34,4,.55,8,1.4,12,1.8,5.8.58,11.63,1.05,17.46,1.26,13.28.48,26.58,1,39.87,1.07a220.44,220.44,0,0,0,23.12-1.19c11.72-1.19,23.44-2.52,35.06-4.4a296.31,296.31,0,0,0,29-6.23c12.92-3.47,25.84-7.12,38.44-11.58a285.57,285.57,0,0,0,50-23c12-7.08,23.81-14.52,35.23-22.48a256.23,256.23,0,0,0,35.51-29.57c9.43-9.48,18.82-19,27.66-29.06a323.33,323.33,0,0,0,23.18-28.88c9.9-14.25,18.91-29.13,28.14-43.84,1.29-2.07,2.45-3,5-3,26.16.09,52.31,0,78.47,0h3c-2.34,4.16-4.39,8-6.57,11.68a442.1,442.1,0,0,1-30.92,45.36,448.05,448.05,0,0,1-53.33,57.68c-33.2,30.44-70.15,55.21-111.58,72.89-13.79,5.88-28.06,10.7-42.3,15.46-7.65,2.56-15.72,3.88-23.56,5.91a290.39,290.39,0,0,1-39.27,6.87c-18.86,2.23-37.77,3.63-56.75,3q-17.83-.54-35.61-2.36c-10.7-1.09-21.35-2.76-31.94-4.61-10-1.75-19.93-3.95-29.84-6.18-8.07-1.81-16.06-4-24.09-6-.24-.06-.43-.29-.65-.44Z"/><path class="cls-1" d="M499.21,240.69v4.86H412.67V240.7c3.35-.51,6.6-1.09,9.87-1.5,6.29-.79,10.35-3.83,11.06-9.47a108.32,108.32,0,0,0,1.13-13.21q.09-42-.07-84c0-.8-.09-1.61-.19-3.2-17.59,17.12-34.71,33.78-51.73,50.36l-30.85-29.39,10.86-10.65Q394.07,108.82,425.37,78c3.89-3.84,8.05-7.25,13.36-8.77a33,33,0,0,1,26.45,3.38c7.26,4.17,11.29,10.82,12.81,18.64,1,5.41.61,11.13.64,16.7q.3,52.76.5,105.5c0,4.28.08,8.56.19,12.84.15,6.27,3.62,11.43,8.93,12.71C491.79,239.81,495.46,240.12,499.21,240.69Z"/><path class="cls-1" d="M345.11,240.71v4.82H266.23v-4.86c3.27-.52,6.33-1.1,9.42-1.49a10.58,10.58,0,0,0,9.3-8.29,55.2,55.2,0,0,0,1.14-10.09c.1-36,0-72,.13-108a210.09,210.09,0,0,1,1.18-23.39,20,20,0,0,1,4.28-9.47c5.94-7.51,13.91-11.29,23.62-11.73,8.14-.36,14.49,2.61,20,8.4,12.13,12.71,24.44,25.25,36.67,37.86.44.46.79,1,1.31,1.67L344.42,142l-16.59-14.54a11.61,11.61,0,0,0-.38,1.75c-.38,29.76-.85,59.53-1,89.29,0,4.75,1.09,9.55,2.07,14.24.79,3.8,4,5.44,7.41,6.29C338.83,239.81,341.85,240.15,345.11,240.71Z"/><path class="cls-1" d="M543.71,137.55c-7.2.7-14,1.32-20.8,2a65.61,65.61,0,0,0-9.26,1.35,8.19,8.19,0,0,0-4.47,2.82c-3.88,5.67-7.44,11.55-11.13,17.36-.48.76-1,1.52-1.6,2.44l-3.21-2.09c.23-3,.44-5.64.64-8.3.4-5.54.75-11.09,1.2-16.63.2-2.56,1.52-3.65,4.26-3.46,41.26,2.92,82.57.93,123.86,1.05,1.86,0,3.72-.19,5.57-.36,1.68-.15,2.41.59,2.39,2.24,0,2.51-.1,5,0,7.53.31,5.36.8,10.7,1.07,16.06a4.21,4.21,0,0,1-1,3c-1.18,1.08-2.54,1.29-3.59-.62-2.89-5.2-6.18-10.19-8.82-15.5-2.42-4.85-6.61-6.15-11.27-6.65-8-.87-16-1.46-24.07-2.15a6.1,6.1,0,0,0-1.13.11,5.38,5.38,0,0,0-.27,1.12c-.78,19.13-1.59,38.26-2.31,57.4-.53,14.12-.93,28.26-1.42,42.38-.12,3.54,1,4.68,4.41,5a88.1,88.1,0,0,1,9.28,1.29c.59.11,1,1.31,1.68,2.37H531.31c.87-1,1.35-2.16,2.06-2.33,2.59-.63,5.26-.95,7.89-1.38.73-.12,1.46-.28,2.18-.4,2.2-.36,2.95-1.56,2.9-3.84-.15-8.47.07-16.94-.15-25.4-.32-12.54-1-25.07-1.36-37.6-.34-11.15-.51-22.31-.79-33.47C544,141.22,543.84,139.56,543.71,137.55Z"/><path class="cls-1" d="M200.2,127.66h53.38c.44,2.79-.71,4.06-3.26,4.2l-1.95.1c-4.85.27-5.66,1.19-5.82,6.06q-1.14,35.55-2.34,71.09c-.31,9.3-.62,18.59-1,27.88-.11,2.6.49,4.31,3.49,4.56a20.37,20.37,0,0,1,5.1,1.26,15.9,15.9,0,0,1,2.91,1.81l-.39.92H202.59l-.58-.71c.75-.72,1.39-1.81,2.28-2.09a57.92,57.92,0,0,1,7-1.55,2.3,2.3,0,0,0,2.22-2.36l0-.28q-.43-19.38-.81-38.77c-.12-5.59-.16-11.17-.3-16.75q-.57-23-1.19-46c-.1-3.51-1.79-4.8-6.28-5C200.8,131.82,200.29,131.38,200.2,127.66Z"/><path class="cls-1" d="M452.39,0c14.78,0,26.35,10.88,26.3,25.08a26.53,26.53,0,0,1-26.6,26.32c-13.38,0-25.41-11.62-25.54-26.34C426.45,11.68,438.79-.57,452.39,0Z"/><path class="cls-1" d="M286.13,25.18C285,10.81,297.08.32,310.81.54c13,.2,23.87,7.68,24.47,23C336,42,323.77,50,310.93,50.18,297.87,50.33,285.17,41.33,286.13,25.18Z"/><path class="cls-1" d="M379.93,292.93c.28,10.45-7.39,15.27-14.74,15.34-9.3.08-15.12-5.39-15.37-14.7-.23-8.42,7-15.32,15.53-15.31C373,278.27,381,284.22,379.93,292.93Zm-21.7.19.47.07c0,1.67-.33,3.43.08,5,.63,2.43,1.33,5.06,2.79,7,2.55,3.42,6.27,2.72,8-1.2,2.79-6.2,3.49-12.56,1.23-19.11-1.12-3.24-3.41-5.58-5.91-5.45-2.91.15-4.47,2.33-5.16,4.76a75,75,0,0,0-1.5,8.93Z"/><path class="cls-1" d="M400.45,278.26c10.19.67,14.83,5.88,14.79,14.57,0,9.09-5.38,15-15.18,15.46-7.24.35-14.95-4.63-14.81-14.79C385.38,283.81,391.86,278.53,400.45,278.26Zm6.25,15.05c.33-4.21.1-8.3-2.64-11.66s-6.31-2.95-8.51.88c-2.64,4.61-2.53,9.63-2.13,14.58a18.58,18.58,0,0,0,2.48,7.51c2,3.49,5.44,3.61,8,.44,2.67-3.43,3.23-7.55,2.8-11.75Z"/><path class="cls-1" d="M329.85,300.62c4,0,7.93.12,11.88-.09,1,0,2-1.15,3.21-1.89V307H321.1c1.46-1.61,2.42-2.69,3.4-3.74,2.46-2.63,5.26-5,7.3-8a19,19,0,0,0,3-7.66,5.21,5.21,0,0,0-3-5.71c-2.53-1.16-4.76-.47-6.72,1.15-1,.8-1.64,2-2.92,2.58a7.1,7.1,0,0,1,3.52-5c4.45-2.61,9.11-3.47,14.07-1.32,3.54,1.52,4.94,7.56,2,10.5s-6.48,5.49-9.77,8.19c-.76.62-1.6,1.16-2.4,1.74Z"/><path class="cls-1" d="M428.22,300.6c3.9,0,7.8.13,11.68-.08,1.12-.06,2.19-1.1,3.61-1.86,0,2.37.08,4.89-.09,7.4,0,.44-1.15,1.15-1.77,1.16-7.06.08-14.12,0-21.18,0l-.54-.69a23,23,0,0,1,2.66-2.92,29.35,29.35,0,0,0,9.24-11.3c.82-1.89,1.56-4.22,1.21-6.14-.91-5-6.17-6.39-10-2.84a14.33,14.33,0,0,1-2.65,2.39,6.66,6.66,0,0,1,3.8-5.14c4.08-2.22,8.26-3.4,13-1.43,4.26,1.78,6.1,7.65,2.78,10.86-3.12,3-6.67,5.58-10.05,8.33-.66.54-1.37,1-2.06,1.53Z"/></g></g></g></g></svg>