<?xml version="1.0" standalone="no"?>
<!DOCTYPE svg PUBLIC "-//W3C//DTD SVG 20010904//EN"
 "http://www.w3.org/TR/2001/REC-SVG-20010904/DTD/svg10.dtd">
<svg version="1.0" xmlns="http://www.w3.org/2000/svg"
 width="766.000000pt" height="418.000000pt" viewBox="0 0 766.000000 418.000000"
 preserveAspectRatio="xMidYMid meet">

<g transform="translate(0.000000,418.000000) scale(0.100000,-0.100000)"
fill="#fff" stroke="none">
<path d="M4449 4166 c-147 -52 -212 -185 -163 -329 20 -58 91 -130 150 -153
62 -24 159 -15 218 20 110 64 158 206 111 324 -45 111 -201 180 -316 138z"/>
<path d="M3000 4150 c-98 -46 -135 -108 -135 -226 0 -72 3 -86 30 -130 97
-156 345 -151 427 9 22 45 34 136 24 190 -10 51 -60 120 -108 147 -61 34 -176
39 -238 10z"/>
<path d="M3100 3491 c-113 -25 -188 -91 -223 -195 -6 -19 -12 -294 -16 -726
-7 -752 -6 -736 -61 -765 -14 -7 -44 -16 -65 -20 -66 -11 -75 -15 -75 -36 0
-18 11 -19 395 -19 387 0 395 0 395 20 0 13 -9 22 -27 26 -112 25 -128 36
-145 101 -9 36 -12 1013 -3 1022 4 4 28 -15 130 -103 l41 -34 84 76 c47 41
111 99 144 128 l59 53 -208 215 c-136 141 -222 223 -249 235 -48 23 -126 33
-176 22z"/>
<path d="M4403 3490 c-17 -4 -51 -19 -75 -33 -24 -14 -215 -196 -425 -404
l-383 -378 149 -140 c82 -77 154 -140 159 -140 6 0 123 109 260 243 138 133
253 242 257 242 4 0 5 -222 3 -492 -3 -432 -5 -498 -20 -530 -19 -42 -53 -63
-118 -73 -70 -10 -80 -15 -80 -36 0 -18 12 -19 431 -19 l430 0 -3 22 c-2 19
-12 24 -58 31 -61 8 -92 25 -117 64 -17 25 -18 81 -24 723 -4 501 -8 705 -17
731 -47 142 -212 227 -369 189z"/>
<path d="M2000 2892 c0 -16 25 -32 50 -32 61 0 60 4 70 -345 5 -176 10 -414
12 -530 l2 -210 -48 -12 c-108 -27 -75 -33 173 -33 136 0 240 4 237 9 -3 5
-26 14 -51 20 -25 6 -48 17 -50 24 -3 6 3 244 13 529 14 393 21 520 31 532 7
9 28 16 47 16 23 0 37 6 44 20 11 20 8 20 -260 20 -148 0 -270 -4 -270 -8z"/>
<path d="M4963 2838 c-15 -18 -33 -259 -20 -275 5 -7 13 -13 17 -13 5 0 36 44
71 99 34 54 70 103 80 109 22 14 116 29 235 38 l91 7 6 -164 c4 -90 10 -324
14 -520 7 -405 14 -370 -79 -383 -26 -4 -50 -11 -53 -17 -4 -5 111 -9 301 -9
210 0 305 3 298 10 -6 6 -37 15 -69 20 -32 5 -62 15 -66 22 -5 7 -6 65 -3 128
2 63 11 293 20 510 8 217 17 396 19 399 10 10 289 -20 315 -34 19 -10 47 -48
85 -115 53 -93 75 -115 90 -90 3 5 3 71 -1 145 l-7 135 -541 -2 c-298 -2 -597
1 -667 5 -100 7 -127 6 -136 -5z"/>
<path d="M11 2173 c238 -304 733 -796 1009 -1004 524 -393 959 -610 1505 -749
304 -77 533 -104 900 -104 377 0 589 26 950 116 300 74 588 180 845 308 163
82 300 160 281 160 -7 0 -77 -20 -155 -44 -307 -96 -596 -157 -961 -201 -186
-23 -259 -27 -475 -27 -272 0 -364 8 -686 62 -533 89 -1057 323 -1489 665
-261 207 -499 461 -679 723 l-77 112 -491 0 c-466 0 -490 -1 -477 -17z"/>
<path d="M6805 2168 c-9 -13 -75 -114 -145 -226 -71 -111 -161 -245 -201 -297
-156 -206 -476 -541 -649 -682 -146 -117 -478 -332 -649 -417 -385 -194 -863
-324 -1386 -377 -132 -13 -628 -7 -770 10 -44 6 -107 12 -140 15 l-60 6 90
-25 c137 -38 394 -92 566 -119 793 -126 1588 -17 2294 313 743 348 1453 1017
1874 1764 l32 57 -420 0 -420 0 -16 -22z"/>
<path d="M3296 1390 c-30 -9 -66 -38 -66 -52 0 -5 13 1 30 13 25 19 33 21 54
11 56 -25 35 -112 -48 -192 -25 -24 -46 -48 -46 -52 0 -4 52 -8 115 -8 l115 0
0 40 c0 37 -2 40 -19 30 -24 -12 -134 -14 -129 -1 2 4 31 31 66 60 53 44 62
56 62 85 0 19 -8 40 -19 50 -23 21 -76 28 -115 16z"/>
<path d="M3606 1390 c-119 -37 -143 -214 -35 -272 105 -56 229 18 229 137 0
94 -101 164 -194 135z m101 -61 c18 -52 15 -128 -7 -177 -17 -38 -23 -43 -47
-40 -41 5 -64 52 -65 135 0 80 13 120 44 132 31 12 60 -7 75 -50z"/>
<path d="M3957 1385 c-53 -18 -85 -51 -98 -98 -42 -157 149 -254 261 -132 22
23 25 36 25 95 0 59 -3 72 -25 95 -14 15 -32 30 -40 35 -32 16 -86 19 -123 5z
m96 -46 c14 -25 17 -51 15 -101 -4 -76 -29 -121 -69 -126 -70 -8 -92 195 -29
258 26 26 60 14 83 -31z"/>
<path d="M4260 1378 c-24 -13 -46 -29 -48 -37 -3 -8 8 -4 27 10 30 22 34 22
59 8 54 -30 37 -101 -45 -189 l-55 -60 116 0 116 0 0 40 c0 37 -2 40 -19 30
-25 -13 -131 -13 -131 0 0 6 4 10 8 10 5 0 37 26 71 59 54 50 62 62 56 82 -19
64 -84 84 -155 47z"/>
</g>
</svg>
