<svg version="1.1" xmlns="http://www.w3.org/2000/svg" xmlns:xlink="http://www.w3.org/1999/xlink" width="50px" height="50px" viewBox="0,0,256,256"><g fill="#010101" fill-rule="nonzero" stroke="none" stroke-width="1" stroke-linecap="butt" stroke-linejoin="miter" stroke-miterlimit="10" stroke-dasharray="" stroke-dashoffset="0" font-family="none" font-weight="none" font-size="none" text-anchor="none" style="mix-blend-mode: normal"><g transform="scale(5.12,5.12)"><path d="M25.875,3.3125c-4.69141,0.10547 -7.66016,2.00391 -8.9375,4.9375c-1.21484,2.79297 -0.96094,6.3125 -0.09375,9.96875c-0.46484,0.54688 -0.84766,1.31641 -0.75,2.46875v0.0625c0.16797,1.21875 0.53516,2.07813 1,2.6875c0.22656,0.29688 0.5625,0.30469 0.84375,0.46875c0.15625,1.05469 0.41406,2.12109 0.8125,3c0.22656,0.5 0.46094,0.93359 0.71875,1.3125c0.12109,0.17578 0.30469,0.28906 0.4375,0.4375v3.59375c-0.32031,0.76953 -1.08203,1.39063 -2.28125,2c-1.25,0.63281 -2.88281,1.21484 -4.53125,1.9375c-1.64844,0.72266 -3.31641,1.61719 -4.65625,3c-1.33984,1.38281 -2.30078,3.26172 -2.4375,5.75l-0.0625,1.0625h40.125l-0.0625,-1.0625c-0.13672,-2.48828 -1.09766,-4.36719 -2.4375,-5.75c-1.33984,-1.38281 -3.03125,-2.27734 -4.6875,-3c-1.65625,-0.72266 -3.29687,-1.30078 -4.5625,-1.9375c-1.21484,-0.60937 -1.97266,-1.22266 -2.3125,-2v-3.625c0.12109,-0.14062 0.29297,-0.23828 0.40625,-0.40625c0.25781,-0.37891 0.52344,-0.8125 0.75,-1.3125c0.39453,-0.87109 0.65625,-1.92578 0.8125,-2.96875c0.32031,-0.16406 0.6875,-0.17578 0.9375,-0.5c0.48047,-0.62891 0.76172,-1.52344 0.875,-2.75c0.08984,-1.05859 -0.21484,-1.82812 -0.6875,-2.40625c0.51953,-1.60156 1.13672,-4.16406 0.9375,-6.78125c-0.10937,-1.4375 -0.48828,-2.87109 -1.34375,-4.0625c-0.77344,-1.07812 -2.02344,-1.81641 -3.59375,-2.15625c-1.05859,-1.41406 -2.98047,-1.96875 -5.1875,-1.96875zM25.90625,5.3125c0.01172,0 0.01953,0 0.03125,0c1.99609,0.00781 3.27344,0.57031 3.6875,1.28125l0.25,0.4375l0.5,0.0625c1.375,0.19141 2.12891,0.72266 2.6875,1.5c0.55859,0.77734 0.87891,1.86328 0.96875,3.0625c0.18359,2.40234 -0.51172,5.21875 -0.96875,6.5l-0.3125,0.84375l0.78125,0.40625c-0.00781,0.02734 0.32031,0.35938 0.28125,1.09375c0,0.01563 0,0.01563 0,0.03125c-0.09375,0.94141 -0.33594,1.47266 -0.5,1.6875c-0.16797,0.21875 -0.25391,0.1875 -0.21875,0.1875h-0.90625l-0.09375,0.90625c-0.08594,0.89844 -0.41016,1.92578 -0.78125,2.75c-0.1875,0.41406 -0.35937,0.78125 -0.53125,1.03125c-0.17187,0.25 -0.375,0.39453 -0.28125,0.34375l-0.5,0.28125v4.625c0,0.03125 0,0.0625 0,0.09375v0.0625c0,-0.01172 -0.17969,0.42969 -0.90625,0.8125c-0.72656,0.38281 -1.84766,0.6875 -3.09375,0.6875c-1.25781,0 -2.37109,-0.28516 -3.09375,-0.65625c-0.72266,-0.37109 -0.90625,-0.75781 -0.90625,-0.84375c0.00391,-0.15234 -0.03125,-0.30078 -0.09375,-0.4375v-4.34375l-0.5,-0.28125c0.09375,0.05078 -0.10937,-0.09375 -0.28125,-0.34375c-0.17187,-0.25 -0.375,-0.61719 -0.5625,-1.03125c-0.37109,-0.82422 -0.69531,-1.85156 -0.78125,-2.75l-0.0625,-0.90625h-0.84375c-0.03516,-0.01562 -0.12891,-0.06641 -0.21875,-0.1875c-0.17578,-0.23047 -0.42578,-0.76953 -0.5625,-1.6875c0,-0.01953 0,-0.01172 0,-0.03125c-0.00391,-0.01562 0.00391,-0.01562 0,-0.03125c-0.01562,-0.75781 0.45313,-1.17969 0.375,-1.125l0.5625,-0.40625l-0.15625,-0.6875c-0.92187,-3.64453 -1.06641,-6.94531 -0.09375,-9.1875c0.97266,-2.23437 2.94141,-3.64844 7.125,-3.75zM20.90625,34.375c0.32031,0.29688 0.6875,0.54297 1.09375,0.75c1.07813,0.55469 2.45703,0.875 4,0.875c1.55469,0 2.96094,-0.33984 4.03125,-0.90625c0.375,-0.19922 0.73047,-0.42187 1.03125,-0.6875c0.65625,0.6875 1.49609,1.21484 2.375,1.65625c1.44922,0.72656 3.10156,1.28906 4.65625,1.96875c1.55469,0.67969 2.98047,1.44922 4.03125,2.53125c0.83594,0.86328 1.35156,2.01172 1.625,3.4375h-35.5c0.27344,-1.42578 0.78906,-2.57422 1.625,-3.4375c1.04688,-1.08203 2.48047,-1.85156 4.03125,-2.53125c1.55078,-0.67969 3.1875,-1.23828 4.625,-1.96875c0.88672,-0.44922 1.73047,-0.98437 2.375,-1.6875z"></path></g></g></svg>