<svg version="1.1" xmlns="http://www.w3.org/2000/svg" xmlns:xlink="http://www.w3.org/1999/xlink" width="32px" height="32px" viewBox="0,0,256,256"><g fill="#030303" fill-rule="nonzero" stroke="none" stroke-width="1" stroke-linecap="butt" stroke-linejoin="miter" stroke-miterlimit="10" stroke-dasharray="" stroke-dashoffset="0" font-family="none" font-weight="none" font-size="none" text-anchor="none" style="mix-blend-mode: normal"><g transform="scale(8,8)"><path d="M16,0c-0.55273,0 -1,0.44727 -1,1v6v8h-3v-3c0,-0.55273 -0.44727,-1 -1,-1h-8c-0.55273,0 -1,0.44727 -1,1v8c0,0.55273 0.44727,1 1,1h8c0.55273,0 1,-0.44727 1,-1v-3h3v6v8c0,0.55273 0.44727,1 1,1c0.55273,0 1,-0.44727 1,-1v-7h3v3c0,0.55273 0.44727,1 1,1h8c0.55273,0 1,-0.44727 1,-1v-8c0,-0.55273 -0.44727,-1 -1,-1h-8c-0.55273,0 -1,0.44727 -1,1v3h-3v-6v-8h3v3c0,0.55273 0.44727,1 1,1h8c0.55273,0 1,-0.44727 1,-1v-8c0,-0.55273 -0.44727,-1 -1,-1h-8c-0.55273,0 -1,0.44727 -1,1v3h-3v-5c0,-0.55273 -0.44727,-1 -1,-1zM22,4h6v6h-6v-3zM4,13h6v3v3h-6zM22,20h6v6h-6v-3z"></path></g></g></svg>