<svg version="1.1" xmlns="http://www.w3.org/2000/svg" xmlns:xlink="http://www.w3.org/1999/xlink" width="128px" height="128px" viewBox="0,0,256,256"><g fill="none" fill-rule="nonzero" stroke="none" stroke-width="1" stroke-linecap="butt" stroke-linejoin="miter" stroke-miterlimit="10" stroke-dasharray="" stroke-dashoffset="0" font-family="none" font-weight="none" font-size="none" text-anchor="none" style="mix-blend-mode: normal"><g transform="scale(2,2)"><path d="M114,4h-100c-5.5,0 -10,4.5 -10,10v80c0,5.5 4.5,10 10,10h76v20l17,-10l17,10v-110c0,-5.5 -4.5,-10 -10,-10z" fill="#ffffff"></path><path d="M70,107h-56c-7.2,0 -13,-5.8 -13,-13v-80c0,-7.2 5.8,-13 13,-13h100c7.2,0 13,5.8 13,13v40c0,1.7 -1.3,3 -3,3c-1.7,0 -3,-1.3 -3,-3v-40c0,-3.9 -3.1,-7 -7,-7h-100c-3.9,0 -7,3.1 -7,7v80c0,3.9 3.1,7 7,7h56c1.7,0 3,1.3 3,3c0,1.7 -1.3,3 -3,3z" fill="#030303"></path><path d="M124,127c-0.5,0 -1.1,-0.1 -1.5,-0.4l-15.5,-9.1l-15.5,9.1c-0.9,0.5 -2.1,0.6 -3,0c-0.9,-0.5 -1.5,-1.5 -1.5,-2.6v-20c0,-1.7 1.3,-3 3,-3c1.7,0 3,1.3 3,3v14.8l12.5,-7.3c0.9,-0.6 2.1,-0.6 3,0l12.5,7.3v-14.8c0,-1.7 1.3,-3 3,-3c1.7,0 3,1.3 3,3v20c0,1.1 -0.6,2.1 -1.5,2.6c-0.5,0.3 -1,0.4 -1.5,0.4z" fill="#030303"></path><circle cx="107" cy="79" r="20" fill="#aaaaaa"></circle><path d="M109,37h-90c-1.7,0 -3,-1.3 -3,-3c0,-1.7 1.3,-3 3,-3h90c1.7,0 3,1.3 3,3c0,1.7 -1.3,3 -3,3z" fill="#030303"></path><path d="M72,57h-53c-1.7,0 -3,-1.3 -3,-3c0,-1.7 1.3,-3 3,-3h53c1.7,0 3,1.3 3,3c0,1.7 -1.3,3 -3,3z" fill="#030303"></path><path d="M52,77h-33c-1.7,0 -3,-1.3 -3,-3c0,-1.7 1.3,-3 3,-3h33c1.7,0 3,1.3 3,3c0,1.7 -1.3,3 -3,3z" fill="#030303"></path><circle cx="72" cy="74" r="3" fill="#030303"></circle></g></g></svg>