<svg version="1.1" xmlns="http://www.w3.org/2000/svg" xmlns:xlink="http://www.w3.org/1999/xlink" width="50px" height="50px" viewBox="0,0,256,256"><g fill="#030303" fill-rule="nonzero" stroke="none" stroke-width="1" stroke-linecap="butt" stroke-linejoin="miter" stroke-miterlimit="10" stroke-dasharray="" stroke-dashoffset="0" font-family="none" font-weight="none" font-size="none" text-anchor="none" style="mix-blend-mode: normal"><g transform="scale(5.12,5.12)"><path d="M35,3.00195c-2.211,0 -4,1.792 -4,4v0.33203c-0.02292,0.08665 -0.03409,0.176 -0.0332,0.26563l-0.00195,21.26953c0.00024,0.17561 0.04672,0.34806 0.13477,0.5l3.03516,5.25977c0.17862,0.30953 0.50884,0.50022 0.86621,0.50022c0.35737,0 0.68759,-0.19069 0.86621,-0.50022l3.03516,-5.26172c0.08736,-0.15213 0.13316,-0.32457 0.13281,-0.5v-21.26758c0.00069,-0.09373 -0.0118,-0.18709 -0.03711,-0.27734c-0.00004,-0.14292 0,-0.32031 0,-0.32031c0,-2.21 -1.79005,-4 -3.99805,-4zM5.80078,5c-1.546,0 -2.80078,1.25378 -2.80078,2.80078v36.19922c0,0.552 0.448,1 1,1h42c0.552,0 1,-0.448 1,-1v-36.19922c0,-1.547 -1.25478,-2.80078 -2.80078,-2.80078h-3.55078c0.223,0.627 0.34961,1.298 0.34961,2h3.00195c0.552,0 1,0.448 1,1v3h-3.96484v2h3.96484v30h-40v-30h23.9668v-2h-23.9668v-3c0,-0.552 0.448,-1 1,-1h23c0,-0.702 0.12761,-1.373 0.34961,-2zM32.9668,7.96094h4.06836v20.63867l-0.23047,0.40039h-3.60938l-0.23047,-0.39844z"></path></g></g></svg>